<svg width="379" height="405" viewBox="0 0 379 405" fill="none" xmlns="http://www.w3.org/2000/svg">
<g filter="url(#filter0_d_1100_224)">
<rect x="8" y="4" width="363" height="389" rx="20" fill="#F7F8F8"/>
<rect x="8.5" y="4.5" width="362" height="388" rx="19.5" stroke="#949E9D"/>
</g>
<path d="M308 170.5C308 152.549 303.394 134.863 294.572 118.945C285.751 103.028 272.975 89.3501 257.332 79.0744C241.688 68.7986 223.639 62.2288 204.719 59.9233C185.798 57.6179 166.566 59.645 148.656 65.8324C130.747 72.0197 114.69 82.1844 101.851 95.4623C89.0111 108.74 79.7687 124.739 74.9089 142.098C70.0492 159.457 69.7158 177.664 73.9371 195.171C78.1584 212.677 86.8096 228.966 99.1553 242.652L130.572 217.562C122.519 208.635 116.876 198.01 114.123 186.592C111.37 175.173 111.587 163.297 114.757 151.975C117.927 140.652 123.955 130.217 132.33 121.556C140.705 112.895 151.178 106.265 162.859 102.23C174.541 98.1938 187.085 96.8716 199.426 98.3754C211.767 99.8791 223.54 104.164 233.744 110.867C243.948 117.569 252.28 126.491 258.034 136.873C263.788 147.255 266.793 158.791 266.793 170.5H308Z" fill="#B888DD"/>
<path d="M107.326 251.63C124.324 268.978 146.966 280.114 171.822 283.35L179.368 244.146C163.156 242.035 148.388 234.772 137.301 223.456L107.326 251.63Z" fill="#59A5D8"/>
<path d="M183.118 286.278C203.428 288.256 224.047 284.317 242.735 274.891C261.423 265.464 277.467 250.91 289.125 232.807L257.096 210.549C249.492 222.357 239.027 231.851 226.838 237.999C214.648 244.148 201.2 246.716 187.952 245.426L183.118 286.278Z" fill="#59A5D8"/>
<path d="M295.024 225.198C300.662 211.367 308.617 191.735 308.153 176.956L266.968 178.305C267.271 187.945 265.533 197.556 261.856 206.577L295.024 225.198Z" fill="#B888DD"/>
<path d="M68.736 329.968C68.736 330.075 68.6827 330.128 68.576 330.128H62.912C62.8693 330.128 62.848 330.149 62.848 330.192V333.632C62.848 333.675 62.8693 333.696 62.912 333.696H66.8C66.9067 333.696 66.96 333.749 66.96 333.856V334.864C66.96 334.971 66.9067 335.024 66.8 335.024H62.912C62.8693 335.024 62.848 335.045 62.848 335.088V339.84C62.848 339.947 62.7947 340 62.688 340H61.472C61.3653 340 61.312 339.947 61.312 339.84V328.96C61.312 328.853 61.3653 328.8 61.472 328.8H68.576C68.6827 328.8 68.736 328.853 68.736 328.96V329.968ZM73.4536 331.776C73.795 331.776 74.1043 331.845 74.3816 331.984C74.4563 332.016 74.483 332.08 74.4616 332.176L74.2056 333.376C74.195 333.472 74.131 333.504 74.0136 333.472C73.8323 333.397 73.619 333.36 73.3736 333.36L73.1496 333.376C72.6483 333.397 72.2323 333.573 71.9016 333.904C71.5816 334.224 71.4216 334.645 71.4216 335.168V339.84C71.4216 339.947 71.3683 340 71.2616 340H70.0456C69.939 340 69.8856 339.947 69.8856 339.84V332.016C69.8856 331.909 69.939 331.856 70.0456 331.856H71.2616C71.3683 331.856 71.4216 331.909 71.4216 332.016V332.864C71.4216 332.896 71.427 332.917 71.4376 332.928C71.459 332.928 71.475 332.917 71.4856 332.896C71.9656 332.149 72.6216 331.776 73.4536 331.776ZM79.0261 340.128C78.2368 340.128 77.5488 339.931 76.9621 339.536C76.3755 339.131 75.9648 338.571 75.7301 337.856C75.5381 337.28 75.4421 336.629 75.4421 335.904C75.4421 335.147 75.5328 334.507 75.7141 333.984C75.9488 333.28 76.3595 332.731 76.9461 332.336C77.5328 331.931 78.2315 331.728 79.0421 331.728C79.8101 331.728 80.4768 331.931 81.0421 332.336C81.6181 332.731 82.0288 333.275 82.2741 333.968C82.4661 334.512 82.5621 335.152 82.5621 335.888C82.5621 336.635 82.4661 337.291 82.2741 337.856C82.0395 338.571 81.6341 339.131 81.0581 339.536C80.4821 339.931 79.8048 340.128 79.0261 340.128ZM79.0261 338.8C79.4528 338.8 79.8261 338.683 80.1461 338.448C80.4661 338.203 80.6955 337.861 80.8341 337.424C80.9515 337.019 81.0101 336.517 81.0101 335.92C81.0101 335.323 80.9568 334.827 80.8501 334.432C80.7115 333.995 80.4821 333.659 80.1621 333.424C79.8421 333.179 79.4528 333.056 78.9941 333.056C78.5568 333.056 78.1781 333.179 77.8581 333.424C77.5381 333.659 77.3088 333.995 77.1701 334.432C77.0528 334.805 76.9941 335.301 76.9941 335.92C76.9941 336.539 77.0528 337.04 77.1701 337.424C77.2981 337.861 77.5221 338.203 77.8421 338.448C78.1728 338.683 78.5675 338.8 79.0261 338.8ZM88.2051 331.744C89.0798 331.744 89.7731 332 90.2851 332.512C90.7971 333.013 91.0531 333.696 91.0531 334.56V339.84C91.0531 339.947 90.9998 340 90.8931 340H89.6771C89.5705 340 89.5171 339.947 89.5171 339.84V334.864C89.5171 334.331 89.3625 333.899 89.0531 333.568C88.7438 333.237 88.3331 333.072 87.8211 333.072C87.3198 333.072 86.9091 333.237 86.5891 333.568C86.2691 333.899 86.1091 334.325 86.1091 334.848V339.84C86.1091 339.947 86.0558 340 85.9491 340H84.7331C84.6265 340 84.5731 339.947 84.5731 339.84V332.016C84.5731 331.909 84.6265 331.856 84.7331 331.856H85.9491C86.0558 331.856 86.1091 331.909 86.1091 332.016V332.592C86.1091 332.613 86.1145 332.629 86.1251 332.64C86.1465 332.651 86.1625 332.645 86.1731 332.624C86.6318 332.037 87.3091 331.744 88.2051 331.744ZM97.261 332.96C97.261 333.067 97.2077 333.12 97.101 333.12H95.373C95.3303 333.12 95.309 333.141 95.309 333.184V337.424C95.309 337.872 95.4103 338.197 95.613 338.4C95.8157 338.592 96.1303 338.688 96.557 338.688H97.021C97.1277 338.688 97.181 338.741 97.181 338.848V339.84C97.181 339.947 97.1277 340 97.021 340C96.6797 340.021 96.4343 340.032 96.285 340.032C95.4743 340.032 94.861 339.888 94.445 339.6C94.0397 339.301 93.837 338.757 93.837 337.968V333.184C93.837 333.141 93.8157 333.12 93.773 333.12H92.797C92.6903 333.12 92.637 333.067 92.637 332.96V332.016C92.637 331.909 92.6903 331.856 92.797 331.856H93.773C93.8157 331.856 93.837 331.835 93.837 331.792V329.904C93.837 329.797 93.8903 329.744 93.997 329.744H95.149C95.2557 329.744 95.309 329.797 95.309 329.904V331.792C95.309 331.835 95.3303 331.856 95.373 331.856H97.101C97.2077 331.856 97.261 331.909 97.261 332.016V332.96ZM98.5638 335.776C98.4571 335.776 98.4038 335.723 98.4038 335.616V334.608C98.4038 334.501 98.4571 334.448 98.5638 334.448H103.508C103.614 334.448 103.668 334.501 103.668 334.608V335.616C103.668 335.723 103.614 335.776 103.508 335.776H98.5638ZM113.002 329.968C113.002 330.075 112.949 330.128 112.842 330.128H107.162C107.119 330.128 107.098 330.149 107.098 330.192V333.632C107.098 333.675 107.119 333.696 107.162 333.696H111.066C111.173 333.696 111.226 333.749 111.226 333.856V334.864C111.226 334.971 111.173 335.024 111.066 335.024H107.162C107.119 335.024 107.098 335.045 107.098 335.088V338.608C107.098 338.651 107.119 338.672 107.162 338.672H112.842C112.949 338.672 113.002 338.725 113.002 338.832V339.84C113.002 339.947 112.949 340 112.842 340H105.722C105.615 340 105.562 339.947 105.562 339.84V328.96C105.562 328.853 105.615 328.8 105.722 328.8H112.842C112.949 328.8 113.002 328.853 113.002 328.96V329.968ZM118.565 331.744C119.439 331.744 120.133 332 120.645 332.512C121.157 333.013 121.413 333.696 121.413 334.56V339.84C121.413 339.947 121.359 340 121.253 340H120.037C119.93 340 119.877 339.947 119.877 339.84V334.864C119.877 334.331 119.722 333.899 119.413 333.568C119.103 333.237 118.693 333.072 118.181 333.072C117.679 333.072 117.269 333.237 116.949 333.568C116.629 333.899 116.469 334.325 116.469 334.848V339.84C116.469 339.947 116.415 340 116.309 340H115.093C114.986 340 114.933 339.947 114.933 339.84V332.016C114.933 331.909 114.986 331.856 115.093 331.856H116.309C116.415 331.856 116.469 331.909 116.469 332.016V332.592C116.469 332.613 116.474 332.629 116.485 332.64C116.506 332.651 116.522 332.645 116.533 332.624C116.991 332.037 117.669 331.744 118.565 331.744ZM128.567 328.96C128.567 328.853 128.62 328.8 128.727 328.8H129.943C130.049 328.8 130.103 328.853 130.103 328.96V339.84C130.103 339.947 130.049 340 129.943 340H128.727C128.62 340 128.567 339.947 128.567 339.84V339.312C128.567 339.291 128.556 339.275 128.535 339.264C128.524 339.253 128.508 339.259 128.487 339.28C128.252 339.547 127.975 339.755 127.655 339.904C127.335 340.053 126.988 340.128 126.615 340.128C125.847 340.128 125.207 339.941 124.695 339.568C124.193 339.184 123.825 338.645 123.591 337.952C123.388 337.387 123.287 336.704 123.287 335.904C123.287 335.157 123.372 334.512 123.543 333.968C123.767 333.264 124.135 332.715 124.647 332.32C125.159 331.925 125.815 331.728 126.615 331.728C126.977 331.728 127.319 331.803 127.639 331.952C127.969 332.091 128.252 332.293 128.487 332.56C128.508 332.581 128.524 332.587 128.535 332.576C128.556 332.565 128.567 332.549 128.567 332.528V328.96ZM128.167 337.936C128.412 337.488 128.535 336.816 128.535 335.92C128.535 335.024 128.401 334.341 128.135 333.872C127.825 333.328 127.372 333.056 126.775 333.056C126.135 333.056 125.66 333.312 125.351 333.824C125.009 334.357 124.839 335.061 124.839 335.936C124.839 336.757 124.972 337.419 125.239 337.92C125.548 338.507 126.055 338.8 126.759 338.8C127.377 338.8 127.847 338.512 128.167 337.936Z" fill="#737171"/>
<path d="M137.876 341.344C137.783 341.344 137.717 341.311 137.68 341.246C137.167 340.546 136.751 339.697 136.434 338.698C136.126 337.69 135.972 336.584 135.972 335.38C135.972 334.167 136.126 333.056 136.434 332.048C136.751 331.031 137.171 330.167 137.694 329.458C137.731 329.393 137.797 329.36 137.89 329.36H139.122C139.187 329.36 139.229 329.379 139.248 329.416C139.276 329.453 139.276 329.5 139.248 329.556C138.819 330.303 138.469 331.175 138.198 332.174C137.927 333.163 137.792 334.232 137.792 335.38C137.792 336.519 137.927 337.578 138.198 338.558C138.469 339.538 138.819 340.401 139.248 341.148C139.267 341.185 139.276 341.213 139.276 341.232C139.276 341.307 139.225 341.344 139.122 341.344H137.876ZM147.122 335.604C147.243 336.024 147.304 336.458 147.304 336.906C147.304 337.345 147.243 337.76 147.122 338.152C146.926 338.749 146.566 339.225 146.044 339.58C145.521 339.925 144.91 340.098 144.21 340.098C143.519 340.098 142.917 339.93 142.404 339.594C141.89 339.249 141.531 338.787 141.326 338.208C141.251 338.003 141.19 337.769 141.144 337.508V337.48C141.144 337.377 141.2 337.326 141.312 337.326H142.642C142.735 337.326 142.796 337.377 142.824 337.48C142.833 337.536 142.856 337.62 142.894 337.732C142.996 338.04 143.16 338.278 143.384 338.446C143.608 338.614 143.878 338.698 144.196 338.698C144.522 338.698 144.802 338.609 145.036 338.432C145.269 338.245 145.432 337.993 145.526 337.676C145.61 337.452 145.652 337.195 145.652 336.906C145.652 336.635 145.614 336.369 145.54 336.108C145.474 335.8 145.325 335.567 145.092 335.408C144.858 335.24 144.574 335.156 144.238 335.156C143.92 335.156 143.631 335.231 143.37 335.38C143.118 335.52 142.954 335.707 142.88 335.94C142.842 336.033 142.777 336.08 142.684 336.08H141.326C141.279 336.08 141.237 336.066 141.2 336.038C141.172 336.001 141.158 335.959 141.158 335.912V330.368C141.158 330.321 141.172 330.284 141.2 330.256C141.237 330.219 141.279 330.2 141.326 330.2H146.772C146.818 330.2 146.856 330.219 146.884 330.256C146.921 330.284 146.94 330.321 146.94 330.368V331.432C146.94 331.479 146.921 331.521 146.884 331.558C146.856 331.586 146.818 331.6 146.772 331.6H142.852C142.805 331.6 142.782 331.623 142.782 331.67L142.768 334.19C142.768 334.227 142.777 334.251 142.796 334.26C142.814 334.26 142.833 334.251 142.852 334.232C143.29 333.905 143.818 333.742 144.434 333.742C145.087 333.742 145.652 333.91 146.128 334.246C146.613 334.573 146.944 335.025 147.122 335.604ZM151.816 340.154C150.836 340.154 150.056 339.879 149.478 339.328C148.908 338.768 148.624 338.017 148.624 337.074V333.126C148.624 332.193 148.908 331.455 149.478 330.914C150.056 330.363 150.836 330.088 151.816 330.088C152.796 330.088 153.575 330.363 154.154 330.914C154.742 331.455 155.036 332.193 155.036 333.126V337.074C155.036 338.017 154.742 338.768 154.154 339.328C153.575 339.879 152.796 340.154 151.816 340.154ZM151.816 338.74C152.301 338.74 152.688 338.6 152.978 338.32C153.267 338.031 153.412 337.643 153.412 337.158V333.07C153.412 332.585 153.267 332.202 152.978 331.922C152.688 331.633 152.301 331.488 151.816 331.488C151.34 331.488 150.957 331.633 150.668 331.922C150.388 332.202 150.248 332.585 150.248 333.07V337.158C150.248 337.643 150.388 338.031 150.668 338.32C150.957 338.6 151.34 338.74 151.816 338.74ZM158.989 334.344C158.597 334.344 158.233 334.251 157.897 334.064C157.57 333.868 157.309 333.607 157.113 333.28C156.926 332.953 156.833 332.594 156.833 332.202C156.833 331.819 156.926 331.465 157.113 331.138C157.309 330.811 157.57 330.555 157.897 330.368C158.233 330.172 158.597 330.074 158.989 330.074C159.371 330.074 159.726 330.172 160.053 330.368C160.389 330.555 160.65 330.811 160.837 331.138C161.033 331.465 161.131 331.819 161.131 332.202C161.131 332.594 161.033 332.953 160.837 333.28C160.65 333.607 160.393 333.868 160.067 334.064C159.74 334.251 159.381 334.344 158.989 334.344ZM158.527 340C158.461 340 158.419 339.981 158.401 339.944C158.382 339.907 158.387 339.86 158.415 339.804L163.693 330.312C163.739 330.237 163.809 330.2 163.903 330.2H164.715C164.78 330.2 164.822 330.219 164.841 330.256C164.859 330.293 164.855 330.34 164.827 330.396L159.563 339.888C159.516 339.963 159.446 340 159.353 340H158.527ZM158.989 333.364C159.306 333.364 159.572 333.252 159.787 333.028C160.011 332.804 160.123 332.529 160.123 332.202C160.123 331.885 160.011 331.614 159.787 331.39C159.572 331.166 159.306 331.054 158.989 331.054C158.662 331.054 158.387 331.166 158.163 331.39C157.939 331.614 157.827 331.885 157.827 332.202C157.827 332.529 157.939 332.804 158.163 333.028C158.387 333.252 158.662 333.364 158.989 333.364ZM164.379 340.126C163.987 340.126 163.623 340.033 163.287 339.846C162.96 339.65 162.699 339.389 162.503 339.062C162.316 338.735 162.223 338.376 162.223 337.984C162.223 337.601 162.316 337.247 162.503 336.92C162.699 336.593 162.96 336.337 163.287 336.15C163.623 335.954 163.987 335.856 164.379 335.856C164.761 335.856 165.116 335.954 165.443 336.15C165.779 336.337 166.04 336.593 166.227 336.92C166.423 337.247 166.521 337.601 166.521 337.984C166.521 338.376 166.423 338.735 166.227 339.062C166.04 339.389 165.783 339.65 165.457 339.846C165.13 340.033 164.771 340.126 164.379 340.126ZM164.379 339.146C164.696 339.146 164.967 339.034 165.191 338.81C165.415 338.586 165.527 338.311 165.527 337.984C165.527 337.667 165.415 337.396 165.191 337.172C164.967 336.948 164.696 336.836 164.379 336.836C164.052 336.836 163.777 336.948 163.553 337.172C163.329 337.396 163.217 337.667 163.217 337.984C163.217 338.311 163.329 338.586 163.553 338.81C163.777 339.034 164.052 339.146 164.379 339.146ZM170.035 329.36C170.128 329.36 170.193 329.393 170.231 329.458C170.744 330.158 171.155 331.012 171.463 332.02C171.78 333.019 171.939 334.115 171.939 335.31C171.939 336.514 171.78 337.629 171.463 338.656C171.145 339.673 170.725 340.537 170.203 341.246C170.165 341.311 170.1 341.344 170.007 341.344H168.775C168.709 341.344 168.663 341.325 168.635 341.288C168.616 341.251 168.621 341.204 168.649 341.148C169.078 340.401 169.428 339.533 169.699 338.544C169.969 337.545 170.105 336.472 170.105 335.324C170.105 334.176 169.969 333.112 169.699 332.132C169.428 331.152 169.078 330.293 168.649 329.556C168.63 329.519 168.621 329.491 168.621 329.472C168.621 329.397 168.672 329.36 168.775 329.36H170.035Z" fill="#1E1E1E"/>
<path d="M97.876 379.344C97.7827 379.344 97.7173 379.311 97.68 379.246C97.1667 378.546 96.7513 377.697 96.434 376.698C96.126 375.69 95.972 374.584 95.972 373.38C95.972 372.167 96.126 371.056 96.434 370.048C96.7513 369.031 97.1713 368.167 97.694 367.458C97.7313 367.393 97.7967 367.36 97.89 367.36H99.122C99.1873 367.36 99.2293 367.379 99.248 367.416C99.276 367.453 99.276 367.5 99.248 367.556C98.8187 368.303 98.4687 369.175 98.198 370.174C97.9273 371.163 97.792 372.232 97.792 373.38C97.792 374.519 97.9273 375.578 98.198 376.558C98.4687 377.538 98.8187 378.401 99.248 379.148C99.2667 379.185 99.276 379.213 99.276 379.232C99.276 379.307 99.2247 379.344 99.122 379.344H97.876ZM102.67 368.242C102.744 368.214 102.814 368.2 102.88 368.2H104.224C104.27 368.2 104.308 368.219 104.336 368.256C104.373 368.284 104.392 368.321 104.392 368.368V377.832C104.392 377.879 104.373 377.921 104.336 377.958C104.308 377.986 104.27 378 104.224 378H102.936C102.889 378 102.847 377.986 102.81 377.958C102.782 377.921 102.768 377.879 102.768 377.832V369.88C102.768 369.861 102.758 369.847 102.74 369.838C102.721 369.819 102.702 369.815 102.684 369.824L101.284 370.258C101.265 370.267 101.242 370.272 101.214 370.272C101.176 370.272 101.144 370.258 101.116 370.23C101.097 370.202 101.088 370.165 101.088 370.118L101.046 369.194C101.046 369.101 101.083 369.035 101.158 368.998L102.67 368.242ZM112.057 373.604C112.179 374.024 112.239 374.458 112.239 374.906C112.239 375.345 112.179 375.76 112.057 376.152C111.861 376.749 111.502 377.225 110.979 377.58C110.457 377.925 109.845 378.098 109.145 378.098C108.455 378.098 107.853 377.93 107.339 377.594C106.826 377.249 106.467 376.787 106.261 376.208C106.187 376.003 106.126 375.769 106.079 375.508V375.48C106.079 375.377 106.135 375.326 106.247 375.326H107.577C107.671 375.326 107.731 375.377 107.759 375.48C107.769 375.536 107.792 375.62 107.829 375.732C107.932 376.04 108.095 376.278 108.319 376.446C108.543 376.614 108.814 376.698 109.131 376.698C109.458 376.698 109.738 376.609 109.971 376.432C110.205 376.245 110.368 375.993 110.461 375.676C110.545 375.452 110.587 375.195 110.587 374.906C110.587 374.635 110.55 374.369 110.475 374.108C110.41 373.8 110.261 373.567 110.027 373.408C109.794 373.24 109.509 373.156 109.173 373.156C108.856 373.156 108.567 373.231 108.305 373.38C108.053 373.52 107.89 373.707 107.815 373.94C107.778 374.033 107.713 374.08 107.619 374.08H106.261C106.215 374.08 106.173 374.066 106.135 374.038C106.107 374.001 106.093 373.959 106.093 373.912V368.368C106.093 368.321 106.107 368.284 106.135 368.256C106.173 368.219 106.215 368.2 106.261 368.2H111.707C111.754 368.2 111.791 368.219 111.819 368.256C111.857 368.284 111.875 368.321 111.875 368.368V369.432C111.875 369.479 111.857 369.521 111.819 369.558C111.791 369.586 111.754 369.6 111.707 369.6H107.787C107.741 369.6 107.717 369.623 107.717 369.67L107.703 372.19C107.703 372.227 107.713 372.251 107.731 372.26C107.75 372.26 107.769 372.251 107.787 372.232C108.226 371.905 108.753 371.742 109.369 371.742C110.023 371.742 110.587 371.91 111.063 372.246C111.549 372.573 111.88 373.025 112.057 373.604ZM115.967 372.344C115.575 372.344 115.211 372.251 114.875 372.064C114.548 371.868 114.287 371.607 114.091 371.28C113.904 370.953 113.811 370.594 113.811 370.202C113.811 369.819 113.904 369.465 114.091 369.138C114.287 368.811 114.548 368.555 114.875 368.368C115.211 368.172 115.575 368.074 115.967 368.074C116.35 368.074 116.704 368.172 117.031 368.368C117.367 368.555 117.628 368.811 117.815 369.138C118.011 369.465 118.109 369.819 118.109 370.202C118.109 370.594 118.011 370.953 117.815 371.28C117.628 371.607 117.372 371.868 117.045 372.064C116.718 372.251 116.359 372.344 115.967 372.344ZM115.505 378C115.44 378 115.398 377.981 115.379 377.944C115.36 377.907 115.365 377.86 115.393 377.804L120.671 368.312C120.718 368.237 120.788 368.2 120.881 368.2H121.693C121.758 368.2 121.8 368.219 121.819 368.256C121.838 368.293 121.833 368.34 121.805 368.396L116.541 377.888C116.494 377.963 116.424 378 116.331 378H115.505ZM115.967 371.364C116.284 371.364 116.55 371.252 116.765 371.028C116.989 370.804 117.101 370.529 117.101 370.202C117.101 369.885 116.989 369.614 116.765 369.39C116.55 369.166 116.284 369.054 115.967 369.054C115.64 369.054 115.365 369.166 115.141 369.39C114.917 369.614 114.805 369.885 114.805 370.202C114.805 370.529 114.917 370.804 115.141 371.028C115.365 371.252 115.64 371.364 115.967 371.364ZM121.357 378.126C120.965 378.126 120.601 378.033 120.265 377.846C119.938 377.65 119.677 377.389 119.481 377.062C119.294 376.735 119.201 376.376 119.201 375.984C119.201 375.601 119.294 375.247 119.481 374.92C119.677 374.593 119.938 374.337 120.265 374.15C120.601 373.954 120.965 373.856 121.357 373.856C121.74 373.856 122.094 373.954 122.421 374.15C122.757 374.337 123.018 374.593 123.205 374.92C123.401 375.247 123.499 375.601 123.499 375.984C123.499 376.376 123.401 376.735 123.205 377.062C123.018 377.389 122.762 377.65 122.435 377.846C122.108 378.033 121.749 378.126 121.357 378.126ZM121.357 377.146C121.674 377.146 121.945 377.034 122.169 376.81C122.393 376.586 122.505 376.311 122.505 375.984C122.505 375.667 122.393 375.396 122.169 375.172C121.945 374.948 121.674 374.836 121.357 374.836C121.03 374.836 120.755 374.948 120.531 375.172C120.307 375.396 120.195 375.667 120.195 375.984C120.195 376.311 120.307 376.586 120.531 376.81C120.755 377.034 121.03 377.146 121.357 377.146ZM127.013 367.36C127.107 367.36 127.172 367.393 127.209 367.458C127.723 368.158 128.133 369.012 128.441 370.02C128.759 371.019 128.917 372.115 128.917 373.31C128.917 374.514 128.759 375.629 128.441 376.656C128.124 377.673 127.704 378.537 127.181 379.246C127.144 379.311 127.079 379.344 126.985 379.344H125.753C125.688 379.344 125.641 379.325 125.613 379.288C125.595 379.251 125.599 379.204 125.627 379.148C126.057 378.401 126.407 377.533 126.677 376.544C126.948 375.545 127.083 374.472 127.083 373.324C127.083 372.176 126.948 371.112 126.677 370.132C126.407 369.152 126.057 368.293 125.627 367.556C125.609 367.519 125.599 367.491 125.599 367.472C125.599 367.397 125.651 367.36 125.753 367.36H127.013Z" fill="#1E1E1E"/>
<path d="M311.876 340.344C311.783 340.344 311.717 340.311 311.68 340.246C311.167 339.546 310.751 338.697 310.434 337.698C310.126 336.69 309.972 335.584 309.972 334.38C309.972 333.167 310.126 332.056 310.434 331.048C310.751 330.031 311.171 329.167 311.694 328.458C311.731 328.393 311.797 328.36 311.89 328.36H313.122C313.187 328.36 313.229 328.379 313.248 328.416C313.276 328.453 313.276 328.5 313.248 328.556C312.819 329.303 312.469 330.175 312.198 331.174C311.927 332.163 311.792 333.232 311.792 334.38C311.792 335.519 311.927 336.578 312.198 337.558C312.469 338.538 312.819 339.401 313.248 340.148C313.267 340.185 313.276 340.213 313.276 340.232C313.276 340.307 313.225 340.344 313.122 340.344H311.876ZM317.3 337.516C317.281 337.535 317.272 337.553 317.272 337.572C317.281 337.591 317.3 337.6 317.328 337.6H321.318C321.364 337.6 321.402 337.619 321.43 337.656C321.467 337.684 321.486 337.721 321.486 337.768V338.832C321.486 338.879 321.467 338.921 321.43 338.958C321.402 338.986 321.364 339 321.318 339H315.298C315.251 339 315.209 338.986 315.172 338.958C315.144 338.921 315.13 338.879 315.13 338.832V337.824C315.13 337.74 315.158 337.67 315.214 337.614C315.923 336.858 316.744 335.929 317.678 334.828L318.336 334.058C319.194 333.059 319.624 332.303 319.624 331.79C319.624 331.407 319.488 331.095 319.218 330.852C318.947 330.609 318.597 330.488 318.168 330.488C317.738 330.488 317.388 330.609 317.118 330.852C316.856 331.095 316.726 331.417 316.726 331.818V332.182C316.726 332.229 316.707 332.271 316.67 332.308C316.642 332.336 316.604 332.35 316.558 332.35H315.256C315.209 332.35 315.167 332.336 315.13 332.308C315.102 332.271 315.088 332.229 315.088 332.182V331.58C315.106 331.076 315.251 330.637 315.522 330.264C315.792 329.891 316.156 329.601 316.614 329.396C317.08 329.191 317.598 329.088 318.168 329.088C318.793 329.088 319.339 329.205 319.806 329.438C320.272 329.671 320.632 329.993 320.884 330.404C321.136 330.805 321.262 331.258 321.262 331.762C321.262 332.527 320.856 333.409 320.044 334.408C319.596 334.968 318.858 335.808 317.832 336.928L317.3 337.516ZM328.833 334.604C328.954 335.024 329.015 335.458 329.015 335.906C329.015 336.345 328.954 336.76 328.833 337.152C328.637 337.749 328.277 338.225 327.755 338.58C327.232 338.925 326.621 339.098 325.921 339.098C325.23 339.098 324.628 338.93 324.115 338.594C323.601 338.249 323.242 337.787 323.037 337.208C322.962 337.003 322.901 336.769 322.855 336.508V336.48C322.855 336.377 322.911 336.326 323.023 336.326H324.353C324.446 336.326 324.507 336.377 324.535 336.48C324.544 336.536 324.567 336.62 324.605 336.732C324.707 337.04 324.871 337.278 325.095 337.446C325.319 337.614 325.589 337.698 325.907 337.698C326.233 337.698 326.513 337.609 326.747 337.432C326.98 337.245 327.143 336.993 327.237 336.676C327.321 336.452 327.363 336.195 327.363 335.906C327.363 335.635 327.325 335.369 327.251 335.108C327.185 334.8 327.036 334.567 326.803 334.408C326.569 334.24 326.285 334.156 325.949 334.156C325.631 334.156 325.342 334.231 325.081 334.38C324.829 334.52 324.665 334.707 324.591 334.94C324.553 335.033 324.488 335.08 324.395 335.08H323.037C322.99 335.08 322.948 335.066 322.911 335.038C322.883 335.001 322.869 334.959 322.869 334.912V329.368C322.869 329.321 322.883 329.284 322.911 329.256C322.948 329.219 322.99 329.2 323.037 329.2H328.483C328.529 329.2 328.567 329.219 328.595 329.256C328.632 329.284 328.651 329.321 328.651 329.368V330.432C328.651 330.479 328.632 330.521 328.595 330.558C328.567 330.586 328.529 330.6 328.483 330.6H324.563C324.516 330.6 324.493 330.623 324.493 330.67L324.479 333.19C324.479 333.227 324.488 333.251 324.507 333.26C324.525 333.26 324.544 333.251 324.563 333.232C325.001 332.905 325.529 332.742 326.145 332.742C326.798 332.742 327.363 332.91 327.839 333.246C328.324 333.573 328.655 334.025 328.833 334.604ZM332.742 333.344C332.35 333.344 331.986 333.251 331.65 333.064C331.324 332.868 331.062 332.607 330.866 332.28C330.68 331.953 330.586 331.594 330.586 331.202C330.586 330.819 330.68 330.465 330.866 330.138C331.062 329.811 331.324 329.555 331.65 329.368C331.986 329.172 332.35 329.074 332.742 329.074C333.125 329.074 333.48 329.172 333.806 329.368C334.142 329.555 334.404 329.811 334.59 330.138C334.786 330.465 334.884 330.819 334.884 331.202C334.884 331.594 334.786 331.953 334.59 332.28C334.404 332.607 334.147 332.868 333.82 333.064C333.494 333.251 333.134 333.344 332.742 333.344ZM332.28 339C332.215 339 332.173 338.981 332.154 338.944C332.136 338.907 332.14 338.86 332.168 338.804L337.446 329.312C337.493 329.237 337.563 329.2 337.656 329.2H338.468C338.534 329.2 338.576 329.219 338.594 329.256C338.613 329.293 338.608 329.34 338.58 329.396L333.316 338.888C333.27 338.963 333.2 339 333.106 339H332.28ZM332.742 332.364C333.06 332.364 333.326 332.252 333.54 332.028C333.764 331.804 333.876 331.529 333.876 331.202C333.876 330.885 333.764 330.614 333.54 330.39C333.326 330.166 333.06 330.054 332.742 330.054C332.416 330.054 332.14 330.166 331.916 330.39C331.692 330.614 331.58 330.885 331.58 331.202C331.58 331.529 331.692 331.804 331.916 332.028C332.14 332.252 332.416 332.364 332.742 332.364ZM338.132 339.126C337.74 339.126 337.376 339.033 337.04 338.846C336.714 338.65 336.452 338.389 336.256 338.062C336.07 337.735 335.976 337.376 335.976 336.984C335.976 336.601 336.07 336.247 336.256 335.92C336.452 335.593 336.714 335.337 337.04 335.15C337.376 334.954 337.74 334.856 338.132 334.856C338.515 334.856 338.87 334.954 339.196 335.15C339.532 335.337 339.794 335.593 339.98 335.92C340.176 336.247 340.274 336.601 340.274 336.984C340.274 337.376 340.176 337.735 339.98 338.062C339.794 338.389 339.537 338.65 339.21 338.846C338.884 339.033 338.524 339.126 338.132 339.126ZM338.132 338.146C338.45 338.146 338.72 338.034 338.944 337.81C339.168 337.586 339.28 337.311 339.28 336.984C339.28 336.667 339.168 336.396 338.944 336.172C338.72 335.948 338.45 335.836 338.132 335.836C337.806 335.836 337.53 335.948 337.306 336.172C337.082 336.396 336.97 336.667 336.97 336.984C336.97 337.311 337.082 337.586 337.306 337.81C337.53 338.034 337.806 338.146 338.132 338.146ZM343.789 328.36C343.882 328.36 343.947 328.393 343.985 328.458C344.498 329.158 344.909 330.012 345.217 331.02C345.534 332.019 345.693 333.115 345.693 334.31C345.693 335.514 345.534 336.629 345.217 337.656C344.899 338.673 344.479 339.537 343.957 340.246C343.919 340.311 343.854 340.344 343.761 340.344H342.529C342.463 340.344 342.417 340.325 342.389 340.288C342.37 340.251 342.375 340.204 342.403 340.148C342.832 339.401 343.182 338.533 343.453 337.544C343.723 336.545 343.859 335.472 343.859 334.324C343.859 333.176 343.723 332.112 343.453 331.132C343.182 330.152 342.832 329.293 342.403 328.556C342.384 328.519 342.375 328.491 342.375 328.472C342.375 328.397 342.426 328.36 342.529 328.36H343.789Z" fill="#1E1E1E"/>
<path d="M312.876 374.344C312.783 374.344 312.717 374.311 312.68 374.246C312.167 373.546 311.751 372.697 311.434 371.698C311.126 370.69 310.972 369.584 310.972 368.38C310.972 367.167 311.126 366.056 311.434 365.048C311.751 364.031 312.171 363.167 312.694 362.458C312.731 362.393 312.797 362.36 312.89 362.36H314.122C314.187 362.36 314.229 362.379 314.248 362.416C314.276 362.453 314.276 362.5 314.248 362.556C313.819 363.303 313.469 364.175 313.198 365.174C312.927 366.163 312.792 367.232 312.792 368.38C312.792 369.519 312.927 370.578 313.198 371.558C313.469 372.538 313.819 373.401 314.248 374.148C314.267 374.185 314.276 374.213 314.276 374.232C314.276 374.307 314.225 374.344 314.122 374.344H312.876ZM317.67 363.242C317.744 363.214 317.814 363.2 317.88 363.2H319.224C319.27 363.2 319.308 363.219 319.336 363.256C319.373 363.284 319.392 363.321 319.392 363.368V372.832C319.392 372.879 319.373 372.921 319.336 372.958C319.308 372.986 319.27 373 319.224 373H317.936C317.889 373 317.847 372.986 317.81 372.958C317.782 372.921 317.768 372.879 317.768 372.832V364.88C317.768 364.861 317.758 364.847 317.74 364.838C317.721 364.819 317.702 364.815 317.684 364.824L316.284 365.258C316.265 365.267 316.242 365.272 316.214 365.272C316.176 365.272 316.144 365.258 316.116 365.23C316.097 365.202 316.088 365.165 316.088 365.118L316.046 364.194C316.046 364.101 316.083 364.035 316.158 363.998L317.67 363.242ZM324.327 373.154C323.347 373.154 322.568 372.879 321.989 372.328C321.42 371.768 321.135 371.017 321.135 370.074V366.126C321.135 365.193 321.42 364.455 321.989 363.914C322.568 363.363 323.347 363.088 324.327 363.088C325.307 363.088 326.087 363.363 326.665 363.914C327.253 364.455 327.547 365.193 327.547 366.126V370.074C327.547 371.017 327.253 371.768 326.665 372.328C326.087 372.879 325.307 373.154 324.327 373.154ZM324.327 371.74C324.813 371.74 325.2 371.6 325.489 371.32C325.779 371.031 325.923 370.643 325.923 370.158V366.07C325.923 365.585 325.779 365.202 325.489 364.922C325.2 364.633 324.813 364.488 324.327 364.488C323.851 364.488 323.469 364.633 323.179 364.922C322.899 365.202 322.759 365.585 322.759 366.07V370.158C322.759 370.643 322.899 371.031 323.179 371.32C323.469 371.6 323.851 371.74 324.327 371.74ZM331.5 367.344C331.108 367.344 330.744 367.251 330.408 367.064C330.082 366.868 329.82 366.607 329.624 366.28C329.438 365.953 329.344 365.594 329.344 365.202C329.344 364.819 329.438 364.465 329.624 364.138C329.82 363.811 330.082 363.555 330.408 363.368C330.744 363.172 331.108 363.074 331.5 363.074C331.883 363.074 332.238 363.172 332.564 363.368C332.9 363.555 333.162 363.811 333.348 364.138C333.544 364.465 333.642 364.819 333.642 365.202C333.642 365.594 333.544 365.953 333.348 366.28C333.162 366.607 332.905 366.868 332.578 367.064C332.252 367.251 331.892 367.344 331.5 367.344ZM331.038 373C330.973 373 330.931 372.981 330.912 372.944C330.894 372.907 330.898 372.86 330.926 372.804L336.204 363.312C336.251 363.237 336.321 363.2 336.414 363.2H337.226C337.292 363.2 337.334 363.219 337.352 363.256C337.371 363.293 337.366 363.34 337.338 363.396L332.074 372.888C332.028 372.963 331.958 373 331.864 373H331.038ZM331.5 366.364C331.818 366.364 332.084 366.252 332.298 366.028C332.522 365.804 332.634 365.529 332.634 365.202C332.634 364.885 332.522 364.614 332.298 364.39C332.084 364.166 331.818 364.054 331.5 364.054C331.174 364.054 330.898 364.166 330.674 364.39C330.45 364.614 330.338 364.885 330.338 365.202C330.338 365.529 330.45 365.804 330.674 366.028C330.898 366.252 331.174 366.364 331.5 366.364ZM336.89 373.126C336.498 373.126 336.134 373.033 335.798 372.846C335.472 372.65 335.21 372.389 335.014 372.062C334.828 371.735 334.734 371.376 334.734 370.984C334.734 370.601 334.828 370.247 335.014 369.92C335.21 369.593 335.472 369.337 335.798 369.15C336.134 368.954 336.498 368.856 336.89 368.856C337.273 368.856 337.628 368.954 337.954 369.15C338.29 369.337 338.552 369.593 338.738 369.92C338.934 370.247 339.032 370.601 339.032 370.984C339.032 371.376 338.934 371.735 338.738 372.062C338.552 372.389 338.295 372.65 337.968 372.846C337.642 373.033 337.282 373.126 336.89 373.126ZM336.89 372.146C337.208 372.146 337.478 372.034 337.702 371.81C337.926 371.586 338.038 371.311 338.038 370.984C338.038 370.667 337.926 370.396 337.702 370.172C337.478 369.948 337.208 369.836 336.89 369.836C336.564 369.836 336.288 369.948 336.064 370.172C335.84 370.396 335.728 370.667 335.728 370.984C335.728 371.311 335.84 371.586 336.064 371.81C336.288 372.034 336.564 372.146 336.89 372.146ZM342.546 362.36C342.64 362.36 342.705 362.393 342.742 362.458C343.256 363.158 343.666 364.012 343.974 365.02C344.292 366.019 344.45 367.115 344.45 368.31C344.45 369.514 344.292 370.629 343.974 371.656C343.657 372.673 343.237 373.537 342.714 374.246C342.677 374.311 342.612 374.344 342.518 374.344H341.286C341.221 374.344 341.174 374.325 341.146 374.288C341.128 374.251 341.132 374.204 341.16 374.148C341.59 373.401 341.94 372.533 342.21 371.544C342.481 370.545 342.616 369.472 342.616 368.324C342.616 367.176 342.481 366.112 342.21 365.132C341.94 364.152 341.59 363.293 341.16 362.556C341.142 362.519 341.132 362.491 341.132 362.472C341.132 362.397 341.184 362.36 341.286 362.36H342.546Z" fill="#1E1E1E"/>
<path d="M61.472 378C61.3653 378 61.312 377.947 61.312 377.84V366.96C61.312 366.853 61.3653 366.8 61.472 366.8H65.344C66.4533 366.8 67.3387 367.093 68 367.68C68.6613 368.256 68.992 369.029 68.992 370V374.8C68.992 375.771 68.6613 376.549 68 377.136C67.3387 377.712 66.4533 378 65.344 378H61.472ZM62.848 376.608C62.848 376.651 62.8693 376.672 62.912 376.672H65.408C66.0267 376.672 66.5173 376.485 66.88 376.112C67.2533 375.728 67.4453 375.216 67.456 374.576V370.224C67.456 369.584 67.2693 369.077 66.896 368.704C66.5333 368.32 66.0373 368.128 65.408 368.128H62.912C62.8693 368.128 62.848 368.149 62.848 368.192V376.608ZM73.9085 369.728C74.5592 369.728 75.1245 369.845 75.6045 370.08C76.0952 370.304 76.4685 370.624 76.7245 371.04C76.9912 371.445 77.1245 371.909 77.1245 372.432V377.84C77.1245 377.947 77.0712 378 76.9645 378H75.7485C75.6418 378 75.5885 377.947 75.5885 377.84V377.264C75.5885 377.211 75.5618 377.2 75.5085 377.232C75.2312 377.52 74.8898 377.744 74.4845 377.904C74.0898 378.053 73.6472 378.128 73.1565 378.128C72.3672 378.128 71.7112 377.931 71.1885 377.536C70.6765 377.131 70.4205 376.523 70.4205 375.712C70.4205 374.88 70.7085 374.229 71.2845 373.76C71.8712 373.28 72.6872 373.04 73.7325 373.04H75.5245C75.5672 373.04 75.5885 373.019 75.5885 372.976V372.544C75.5885 372.075 75.4498 371.712 75.1725 371.456C74.9058 371.189 74.4952 371.056 73.9405 371.056C73.4925 371.056 73.1245 371.147 72.8365 371.328C72.5592 371.499 72.3885 371.733 72.3245 372.032C72.2925 372.139 72.2285 372.187 72.1325 372.176L70.8365 372C70.7298 371.979 70.6818 371.936 70.6925 371.872C70.7778 371.243 71.1138 370.731 71.7005 370.336C72.2872 369.931 73.0232 369.728 73.9085 369.728ZM73.4925 376.832C74.0578 376.832 74.5485 376.683 74.9645 376.384C75.3805 376.085 75.5885 375.707 75.5885 375.248V374.304C75.5885 374.261 75.5672 374.24 75.5245 374.24H74.0205C73.3912 374.24 72.8898 374.363 72.5165 374.608C72.1432 374.853 71.9565 375.195 71.9565 375.632C71.9565 376.027 72.0952 376.325 72.3725 376.528C72.6605 376.731 73.0338 376.832 73.4925 376.832ZM83.1048 370.96C83.1048 371.067 83.0514 371.12 82.9448 371.12H81.2168C81.1741 371.12 81.1528 371.141 81.1528 371.184V375.424C81.1528 375.872 81.2541 376.197 81.4568 376.4C81.6594 376.592 81.9741 376.688 82.4008 376.688H82.8648C82.9714 376.688 83.0248 376.741 83.0248 376.848V377.84C83.0248 377.947 82.9714 378 82.8648 378C82.5234 378.021 82.2781 378.032 82.1288 378.032C81.3181 378.032 80.7048 377.888 80.2888 377.6C79.8834 377.301 79.6808 376.757 79.6808 375.968V371.184C79.6808 371.141 79.6594 371.12 79.6168 371.12H78.6408C78.5341 371.12 78.4808 371.067 78.4808 370.96V370.016C78.4808 369.909 78.5341 369.856 78.6408 369.856H79.6168C79.6594 369.856 79.6808 369.835 79.6808 369.792V367.904C79.6808 367.797 79.7341 367.744 79.8408 367.744H80.9928C81.0994 367.744 81.1528 367.797 81.1528 367.904V369.792C81.1528 369.835 81.1741 369.856 81.2168 369.856H82.9448C83.0514 369.856 83.1048 369.909 83.1048 370.016V370.96ZM87.971 369.728C88.6217 369.728 89.187 369.845 89.667 370.08C90.1577 370.304 90.531 370.624 90.787 371.04C91.0537 371.445 91.187 371.909 91.187 372.432V377.84C91.187 377.947 91.1337 378 91.027 378H89.811C89.7043 378 89.651 377.947 89.651 377.84V377.264C89.651 377.211 89.6243 377.2 89.571 377.232C89.2937 377.52 88.9523 377.744 88.547 377.904C88.1523 378.053 87.7097 378.128 87.219 378.128C86.4297 378.128 85.7737 377.931 85.251 377.536C84.739 377.131 84.483 376.523 84.483 375.712C84.483 374.88 84.771 374.229 85.347 373.76C85.9337 373.28 86.7497 373.04 87.795 373.04H89.587C89.6297 373.04 89.651 373.019 89.651 372.976V372.544C89.651 372.075 89.5123 371.712 89.235 371.456C88.9683 371.189 88.5577 371.056 88.003 371.056C87.555 371.056 87.187 371.147 86.899 371.328C86.6217 371.499 86.451 371.733 86.387 372.032C86.355 372.139 86.291 372.187 86.195 372.176L84.899 372C84.7923 371.979 84.7443 371.936 84.755 371.872C84.8403 371.243 85.1763 370.731 85.763 370.336C86.3497 369.931 87.0857 369.728 87.971 369.728ZM87.555 376.832C88.1203 376.832 88.611 376.683 89.027 376.384C89.443 376.085 89.651 375.707 89.651 375.248V374.304C89.651 374.261 89.6297 374.24 89.587 374.24H88.083C87.4537 374.24 86.9523 374.363 86.579 374.608C86.2057 374.853 86.019 375.195 86.019 375.632C86.019 376.027 86.1577 376.325 86.435 376.528C86.723 376.731 87.0963 376.832 87.555 376.832Z" fill="#737171"/>
<path d="M244.96 375.144C244.181 375.144 243.493 374.984 242.896 374.664C242.299 374.344 241.835 373.896 241.504 373.32C241.173 372.733 241.008 372.061 241.008 371.304V367.496C241.008 366.739 241.173 366.072 241.504 365.496C241.835 364.92 242.299 364.472 242.896 364.152C243.493 363.832 244.181 363.672 244.96 363.672C245.749 363.672 246.443 363.832 247.04 364.152C247.637 364.472 248.101 364.92 248.432 365.496C248.763 366.072 248.928 366.739 248.928 367.496V371.304C248.928 372.061 248.763 372.733 248.432 373.32C248.101 373.896 247.637 374.344 247.04 374.664C246.443 374.984 245.749 375.144 244.96 375.144ZM244.96 373.816C245.685 373.816 246.272 373.592 246.72 373.144C247.168 372.696 247.392 372.104 247.392 371.368V367.48C247.392 366.733 247.168 366.136 246.72 365.688C246.272 365.229 245.685 365 244.96 365C244.235 365 243.648 365.229 243.2 365.688C242.763 366.136 242.544 366.733 242.544 367.48V371.368C242.544 372.104 242.763 372.696 243.2 373.144C243.648 373.592 244.235 373.816 244.96 373.816ZM254.641 366.776C254.982 366.776 255.292 366.845 255.569 366.984C255.644 367.016 255.67 367.08 255.649 367.176L255.393 368.376C255.382 368.472 255.318 368.504 255.201 368.472C255.02 368.397 254.806 368.36 254.561 368.36L254.337 368.376C253.836 368.397 253.42 368.573 253.089 368.904C252.769 369.224 252.609 369.645 252.609 370.168V374.84C252.609 374.947 252.556 375 252.449 375H251.233C251.126 375 251.073 374.947 251.073 374.84V367.016C251.073 366.909 251.126 366.856 251.233 366.856H252.449C252.556 366.856 252.609 366.909 252.609 367.016V367.864C252.609 367.896 252.614 367.917 252.625 367.928C252.646 367.928 252.662 367.917 252.673 367.896C253.153 367.149 253.809 366.776 254.641 366.776ZM259.924 366.728C260.575 366.728 261.14 366.845 261.62 367.08C262.111 367.304 262.484 367.624 262.74 368.04C263.007 368.445 263.14 368.909 263.14 369.432V374.84C263.14 374.947 263.087 375 262.98 375H261.764C261.657 375 261.604 374.947 261.604 374.84V374.264C261.604 374.211 261.577 374.2 261.524 374.232C261.247 374.52 260.905 374.744 260.5 374.904C260.105 375.053 259.663 375.128 259.172 375.128C258.383 375.128 257.727 374.931 257.204 374.536C256.692 374.131 256.436 373.523 256.436 372.712C256.436 371.88 256.724 371.229 257.3 370.76C257.887 370.28 258.703 370.04 259.748 370.04H261.54C261.583 370.04 261.604 370.019 261.604 369.976V369.544C261.604 369.075 261.465 368.712 261.188 368.456C260.921 368.189 260.511 368.056 259.956 368.056C259.508 368.056 259.14 368.147 258.852 368.328C258.575 368.499 258.404 368.733 258.34 369.032C258.308 369.139 258.244 369.187 258.148 369.176L256.852 369C256.745 368.979 256.697 368.936 256.708 368.872C256.793 368.243 257.129 367.731 257.716 367.336C258.303 366.931 259.039 366.728 259.924 366.728ZM259.508 373.832C260.073 373.832 260.564 373.683 260.98 373.384C261.396 373.085 261.604 372.707 261.604 372.248V371.304C261.604 371.261 261.583 371.24 261.54 371.24H260.036C259.407 371.24 258.905 371.363 258.532 371.608C258.159 371.853 257.972 372.195 257.972 372.632C257.972 373.027 258.111 373.325 258.388 373.528C258.676 373.731 259.049 373.832 259.508 373.832ZM269.12 367.96C269.12 368.067 269.067 368.12 268.96 368.12H267.232C267.19 368.12 267.168 368.141 267.168 368.184V372.424C267.168 372.872 267.27 373.197 267.472 373.4C267.675 373.592 267.99 373.688 268.416 373.688H268.88C268.987 373.688 269.04 373.741 269.04 373.848V374.84C269.04 374.947 268.987 375 268.88 375C268.539 375.021 268.294 375.032 268.144 375.032C267.334 375.032 266.72 374.888 266.304 374.6C265.899 374.301 265.696 373.757 265.696 372.968V368.184C265.696 368.141 265.675 368.12 265.632 368.12H264.656C264.55 368.12 264.496 368.067 264.496 367.96V367.016C264.496 366.909 264.55 366.856 264.656 366.856H265.632C265.675 366.856 265.696 366.835 265.696 366.792V364.904C265.696 364.797 265.75 364.744 265.856 364.744H267.008C267.115 364.744 267.168 364.797 267.168 364.904V366.792C267.168 366.835 267.19 366.856 267.232 366.856H268.96C269.067 366.856 269.12 366.909 269.12 367.016V367.96ZM274.151 375.128C273.362 375.128 272.674 374.931 272.087 374.536C271.5 374.131 271.09 373.571 270.855 372.856C270.663 372.28 270.567 371.629 270.567 370.904C270.567 370.147 270.658 369.507 270.839 368.984C271.074 368.28 271.484 367.731 272.071 367.336C272.658 366.931 273.356 366.728 274.167 366.728C274.935 366.728 275.602 366.931 276.167 367.336C276.743 367.731 277.154 368.275 277.399 368.968C277.591 369.512 277.687 370.152 277.687 370.888C277.687 371.635 277.591 372.291 277.399 372.856C277.164 373.571 276.759 374.131 276.183 374.536C275.607 374.931 274.93 375.128 274.151 375.128ZM274.151 373.8C274.578 373.8 274.951 373.683 275.271 373.448C275.591 373.203 275.82 372.861 275.959 372.424C276.076 372.019 276.135 371.517 276.135 370.92C276.135 370.323 276.082 369.827 275.975 369.432C275.836 368.995 275.607 368.659 275.287 368.424C274.967 368.179 274.578 368.056 274.119 368.056C273.682 368.056 273.303 368.179 272.983 368.424C272.663 368.659 272.434 368.995 272.295 369.432C272.178 369.805 272.119 370.301 272.119 370.92C272.119 371.539 272.178 372.04 272.295 372.424C272.423 372.861 272.647 373.203 272.967 373.448C273.298 373.683 273.692 373.8 274.151 373.8ZM273.367 365.832C273.303 365.832 273.255 365.816 273.223 365.784C273.202 365.741 273.207 365.693 273.239 365.64L274.183 363.912C274.215 363.837 274.279 363.8 274.375 363.8H275.447C275.511 363.8 275.548 363.821 275.559 363.864C275.58 363.896 275.575 363.939 275.543 363.992L274.407 365.72C274.354 365.795 274.29 365.832 274.215 365.832H273.367ZM283.047 366.776C283.389 366.776 283.698 366.845 283.975 366.984C284.05 367.016 284.077 367.08 284.055 367.176L283.799 368.376C283.789 368.472 283.725 368.504 283.607 368.472C283.426 368.397 283.213 368.36 282.967 368.36L282.743 368.376C282.242 368.397 281.826 368.573 281.495 368.904C281.175 369.224 281.015 369.645 281.015 370.168V374.84C281.015 374.947 280.962 375 280.855 375H279.639C279.533 375 279.479 374.947 279.479 374.84V367.016C279.479 366.909 279.533 366.856 279.639 366.856H280.855C280.962 366.856 281.015 366.909 281.015 367.016V367.864C281.015 367.896 281.021 367.917 281.031 367.928C281.053 367.928 281.069 367.917 281.079 367.896C281.559 367.149 282.215 366.776 283.047 366.776ZM286.345 365.576C286.046 365.576 285.801 365.48 285.609 365.288C285.417 365.096 285.321 364.851 285.321 364.552C285.321 364.253 285.417 364.008 285.609 363.816C285.801 363.624 286.046 363.528 286.345 363.528C286.644 363.528 286.889 363.624 287.081 363.816C287.273 364.008 287.369 364.253 287.369 364.552C287.369 364.851 287.273 365.096 287.081 365.288C286.889 365.48 286.644 365.576 286.345 365.576ZM285.705 374.984C285.598 374.984 285.545 374.931 285.545 374.824V367.016C285.545 366.909 285.598 366.856 285.705 366.856H286.921C287.028 366.856 287.081 366.909 287.081 367.016V374.824C287.081 374.931 287.028 374.984 286.921 374.984H285.705ZM292.471 366.728C293.122 366.728 293.687 366.845 294.167 367.08C294.658 367.304 295.031 367.624 295.287 368.04C295.554 368.445 295.687 368.909 295.687 369.432V374.84C295.687 374.947 295.634 375 295.527 375H294.311C294.204 375 294.151 374.947 294.151 374.84V374.264C294.151 374.211 294.124 374.2 294.071 374.232C293.794 374.52 293.452 374.744 293.047 374.904C292.652 375.053 292.21 375.128 291.719 375.128C290.93 375.128 290.274 374.931 289.751 374.536C289.239 374.131 288.983 373.523 288.983 372.712C288.983 371.88 289.271 371.229 289.847 370.76C290.434 370.28 291.25 370.04 292.295 370.04H294.087C294.13 370.04 294.151 370.019 294.151 369.976V369.544C294.151 369.075 294.012 368.712 293.735 368.456C293.468 368.189 293.058 368.056 292.503 368.056C292.055 368.056 291.687 368.147 291.399 368.328C291.122 368.499 290.951 368.733 290.887 369.032C290.855 369.139 290.791 369.187 290.695 369.176L289.399 369C289.292 368.979 289.244 368.936 289.255 368.872C289.34 368.243 289.676 367.731 290.263 367.336C290.85 366.931 291.586 366.728 292.471 366.728ZM292.055 373.832C292.62 373.832 293.111 373.683 293.527 373.384C293.943 373.085 294.151 372.707 294.151 372.248V371.304C294.151 371.261 294.13 371.24 294.087 371.24H292.583C291.954 371.24 291.452 371.363 291.079 371.608C290.706 371.853 290.519 372.195 290.519 372.632C290.519 373.027 290.658 373.325 290.935 373.528C291.223 373.731 291.596 373.832 292.055 373.832Z" fill="#737171"/>
<path d="M244.912 339.128C244.144 339.128 243.461 338.979 242.864 338.68C242.277 338.371 241.819 337.939 241.488 337.384C241.168 336.819 241.008 336.173 241.008 335.448V331.352C241.008 330.616 241.168 329.971 241.488 329.416C241.819 328.861 242.277 328.435 242.864 328.136C243.461 327.827 244.144 327.672 244.912 327.672C245.68 327.672 246.357 327.821 246.944 328.12C247.531 328.419 247.984 328.835 248.304 329.368C248.635 329.891 248.8 330.483 248.8 331.144V331.32C248.8 331.427 248.747 331.48 248.64 331.48H247.424C247.317 331.48 247.264 331.427 247.264 331.32V331.176C247.264 330.536 247.045 330.019 246.608 329.624C246.181 329.219 245.616 329.016 244.912 329.016C244.197 329.016 243.621 329.224 243.184 329.64C242.757 330.056 242.544 330.611 242.544 331.304V335.496C242.544 336.189 242.768 336.744 243.216 337.16C243.664 337.576 244.251 337.784 244.976 337.784C245.68 337.784 246.235 337.603 246.64 337.24C247.056 336.867 247.264 336.36 247.264 335.72V334.488C247.264 334.445 247.243 334.424 247.2 334.424H245.04C244.933 334.424 244.88 334.371 244.88 334.264V333.272C244.88 333.165 244.933 333.112 245.04 333.112H248.64C248.747 333.112 248.8 333.165 248.8 333.272V335.304C248.8 336.531 248.448 337.475 247.744 338.136C247.051 338.797 246.107 339.128 244.912 339.128ZM257.509 333.912C257.552 334.349 257.568 334.84 257.557 335.384C257.557 335.491 257.504 335.544 257.397 335.544H252.293C252.25 335.544 252.229 335.565 252.229 335.608C252.229 335.971 252.261 336.248 252.325 336.44C252.442 336.867 252.677 337.203 253.029 337.448C253.392 337.683 253.845 337.8 254.389 337.8C255.178 337.8 255.786 337.475 256.213 336.824C256.266 336.717 256.336 336.701 256.421 336.776L257.333 337.384C257.408 337.448 257.424 337.517 257.381 337.592C257.082 338.072 256.656 338.451 256.101 338.728C255.557 339.005 254.938 339.144 254.245 339.144C253.466 339.144 252.81 338.973 252.277 338.632C251.744 338.291 251.344 337.805 251.077 337.176C250.821 336.547 250.693 335.784 250.693 334.888C250.693 334.109 250.752 333.517 250.869 333.112C251.061 332.376 251.445 331.795 252.021 331.368C252.597 330.941 253.296 330.728 254.117 330.728C255.194 330.728 256 331 256.533 331.544C257.066 332.077 257.392 332.867 257.509 333.912ZM254.117 332.056C253.658 332.056 253.28 332.173 252.981 332.408C252.682 332.632 252.48 332.936 252.373 333.32C252.298 333.555 252.25 333.853 252.229 334.216C252.229 334.259 252.25 334.28 252.293 334.28H255.957C256 334.28 256.021 334.259 256.021 334.216C256 333.864 255.968 333.603 255.925 333.432C255.818 333.016 255.605 332.685 255.285 332.44C254.976 332.184 254.586 332.056 254.117 332.056ZM262.234 339.096C261.594 339.096 261.029 339 260.538 338.808C260.058 338.616 259.685 338.355 259.418 338.024C259.151 337.683 259.018 337.309 259.018 336.904V336.728C259.018 336.621 259.071 336.568 259.178 336.568H260.33C260.437 336.568 260.49 336.621 260.49 336.728V336.808C260.49 337.107 260.65 337.368 260.97 337.592C261.301 337.816 261.717 337.928 262.218 337.928C262.698 337.928 263.087 337.827 263.386 337.624C263.685 337.411 263.834 337.144 263.834 336.824C263.834 336.515 263.695 336.285 263.418 336.136C263.141 335.976 262.693 335.811 262.074 335.64C261.466 335.469 260.954 335.299 260.538 335.128C260.133 334.947 259.786 334.696 259.498 334.376C259.221 334.045 259.082 333.624 259.082 333.112C259.082 332.397 259.359 331.832 259.914 331.416C260.479 330.989 261.226 330.776 262.154 330.776C262.773 330.776 263.317 330.877 263.786 331.08C264.266 331.272 264.634 331.544 264.89 331.896C265.146 332.248 265.274 332.643 265.274 333.08V333.128C265.274 333.235 265.221 333.288 265.114 333.288H263.994C263.887 333.288 263.834 333.235 263.834 333.128V333.08C263.834 332.771 263.679 332.515 263.37 332.312C263.071 332.099 262.661 331.992 262.138 331.992C261.669 331.992 261.285 332.083 260.986 332.264C260.698 332.445 260.554 332.691 260.554 333C260.554 333.309 260.693 333.544 260.97 333.704C261.258 333.864 261.717 334.035 262.346 334.216C262.965 334.387 263.477 334.557 263.882 334.728C264.298 334.888 264.65 335.133 264.938 335.464C265.226 335.784 265.37 336.205 265.37 336.728C265.37 337.453 265.082 338.029 264.506 338.456C263.941 338.883 263.183 339.096 262.234 339.096ZM271.167 331.96C271.167 332.067 271.114 332.12 271.007 332.12H269.279C269.237 332.12 269.215 332.141 269.215 332.184V336.424C269.215 336.872 269.317 337.197 269.519 337.4C269.722 337.592 270.037 337.688 270.463 337.688H270.927C271.034 337.688 271.087 337.741 271.087 337.848V338.84C271.087 338.947 271.034 339 270.927 339C270.586 339.021 270.341 339.032 270.191 339.032C269.381 339.032 268.767 338.888 268.351 338.6C267.946 338.301 267.743 337.757 267.743 336.968V332.184C267.743 332.141 267.722 332.12 267.679 332.12H266.703C266.597 332.12 266.543 332.067 266.543 331.96V331.016C266.543 330.909 266.597 330.856 266.703 330.856H267.679C267.722 330.856 267.743 330.835 267.743 330.792V328.904C267.743 328.797 267.797 328.744 267.903 328.744H269.055C269.162 328.744 269.215 328.797 269.215 328.904V330.792C269.215 330.835 269.237 330.856 269.279 330.856H271.007C271.114 330.856 271.167 330.909 271.167 331.016V331.96ZM276.034 330.728C276.684 330.728 277.25 330.845 277.73 331.08C278.22 331.304 278.594 331.624 278.85 332.04C279.116 332.445 279.25 332.909 279.25 333.432V338.84C279.25 338.947 279.196 339 279.09 339H277.874C277.767 339 277.714 338.947 277.714 338.84V338.264C277.714 338.211 277.687 338.2 277.634 338.232C277.356 338.52 277.015 338.744 276.61 338.904C276.215 339.053 275.772 339.128 275.282 339.128C274.492 339.128 273.836 338.931 273.314 338.536C272.802 338.131 272.546 337.523 272.546 336.712C272.546 335.88 272.834 335.229 273.41 334.76C273.996 334.28 274.812 334.04 275.858 334.04H277.65C277.692 334.04 277.714 334.019 277.714 333.976V333.544C277.714 333.075 277.575 332.712 277.298 332.456C277.031 332.189 276.62 332.056 276.066 332.056C275.618 332.056 275.25 332.147 274.962 332.328C274.684 332.499 274.514 332.733 274.45 333.032C274.418 333.139 274.354 333.187 274.258 333.176L272.962 333C272.855 332.979 272.807 332.936 272.818 332.872C272.903 332.243 273.239 331.731 273.826 331.336C274.412 330.931 275.148 330.728 276.034 330.728ZM275.618 337.832C276.183 337.832 276.674 337.683 277.09 337.384C277.506 337.085 277.714 336.707 277.714 336.248V335.304C277.714 335.261 277.692 335.24 277.65 335.24H276.146C275.516 335.24 275.015 335.363 274.642 335.608C274.268 335.853 274.082 336.195 274.082 336.632C274.082 337.027 274.22 337.325 274.498 337.528C274.786 337.731 275.159 337.832 275.618 337.832ZM277.074 329.512C276.871 329.512 276.695 329.485 276.546 329.432C276.396 329.379 276.231 329.299 276.049 329.192C275.847 329.085 275.692 329.011 275.586 328.968C275.49 328.925 275.383 328.904 275.266 328.904C274.924 328.904 274.642 329.021 274.418 329.256L274.354 329.32C274.332 329.352 274.3 329.368 274.258 329.368C274.226 329.368 274.194 329.352 274.162 329.32L273.714 328.872C273.639 328.797 273.628 328.723 273.682 328.648C273.863 328.371 274.082 328.157 274.338 328.008C274.594 327.859 274.876 327.784 275.186 327.784C275.367 327.784 275.522 327.811 275.65 327.864C275.788 327.907 275.916 327.96 276.034 328.024C276.151 328.088 276.231 328.131 276.274 328.152C276.316 328.173 276.391 328.216 276.498 328.28C276.615 328.344 276.716 328.392 276.802 328.424C276.898 328.445 276.988 328.456 277.074 328.456C277.404 328.456 277.682 328.312 277.906 328.024C277.97 327.917 278.044 327.907 278.13 327.992L278.53 328.44C278.562 328.483 278.578 328.52 278.578 328.552C278.588 328.584 278.583 328.621 278.562 328.664C278.434 328.931 278.231 329.139 277.954 329.288C277.687 329.437 277.394 329.512 277.074 329.512ZM284.557 339.128C283.768 339.128 283.08 338.931 282.493 338.536C281.907 338.131 281.496 337.571 281.261 336.856C281.069 336.28 280.973 335.629 280.973 334.904C280.973 334.147 281.064 333.507 281.245 332.984C281.48 332.28 281.891 331.731 282.477 331.336C283.064 330.931 283.763 330.728 284.573 330.728C285.341 330.728 286.008 330.931 286.573 331.336C287.149 331.731 287.56 332.275 287.805 332.968C287.997 333.512 288.093 334.152 288.093 334.888C288.093 335.635 287.997 336.291 287.805 336.856C287.571 337.571 287.165 338.131 286.589 338.536C286.013 338.931 285.336 339.128 284.557 339.128ZM284.557 337.8C284.984 337.8 285.357 337.683 285.677 337.448C285.997 337.203 286.227 336.861 286.365 336.424C286.483 336.019 286.541 335.517 286.541 334.92C286.541 334.323 286.488 333.827 286.381 333.432C286.243 332.995 286.013 332.659 285.693 332.424C285.373 332.179 284.984 332.056 284.525 332.056C284.088 332.056 283.709 332.179 283.389 332.424C283.069 332.659 282.84 332.995 282.701 333.432C282.584 333.805 282.525 334.301 282.525 334.92C282.525 335.539 282.584 336.04 282.701 336.424C282.829 336.861 283.053 337.203 283.373 337.448C283.704 337.683 284.099 337.8 284.557 337.8Z" fill="#737171"/>
<rect x="40" y="324" width="16" height="16" rx="5" fill="#B888DD"/>
<rect x="40" y="362" width="16" height="16" rx="5" fill="#B888DD"/>
<rect x="220" y="324" width="16" height="16" rx="5" fill="#7CB7FC"/>
<rect x="220" y="362" width="16" height="16" rx="5" fill="#7CB7FC"/>
<path d="M154.25 184.7C154.183 184.767 154.15 184.833 154.15 184.9C154.183 184.967 154.25 185 154.35 185H168.6C168.767 185 168.9 185.067 169 185.2C169.133 185.3 169.2 185.433 169.2 185.6V189.4C169.2 189.567 169.133 189.717 169 189.85C168.9 189.95 168.767 190 168.6 190H147.1C146.933 190 146.783 189.95 146.65 189.85C146.55 189.717 146.5 189.567 146.5 189.4V185.8C146.5 185.5 146.6 185.25 146.8 185.05C149.333 182.35 152.267 179.033 155.6 175.1L157.95 172.35C161.017 168.783 162.55 166.083 162.55 164.25C162.55 162.883 162.067 161.767 161.1 160.9C160.133 160.033 158.883 159.6 157.35 159.6C155.817 159.6 154.567 160.033 153.6 160.9C152.667 161.767 152.2 162.917 152.2 164.35V165.65C152.2 165.817 152.133 165.967 152 166.1C151.9 166.2 151.767 166.25 151.6 166.25H146.95C146.783 166.25 146.633 166.2 146.5 166.1C146.4 165.967 146.35 165.817 146.35 165.65V163.5C146.417 161.7 146.933 160.133 147.9 158.8C148.867 157.467 150.167 156.433 151.8 155.7C153.467 154.967 155.317 154.6 157.35 154.6C159.583 154.6 161.533 155.017 163.2 155.85C164.867 156.683 166.15 157.833 167.05 159.3C167.95 160.733 168.4 162.35 168.4 164.15C168.4 166.883 166.95 170.033 164.05 173.6C162.45 175.6 159.817 178.6 156.15 182.6L154.25 184.7ZM194.002 173.35C194.669 174.95 195.002 176.783 195.002 178.85C195.002 180.717 194.719 182.367 194.152 183.8C193.385 185.9 192.119 187.533 190.352 188.7C188.585 189.833 186.452 190.4 183.952 190.4C181.485 190.4 179.335 189.783 177.502 188.55C175.702 187.283 174.419 185.583 173.652 183.45C173.252 182.417 173.019 181.067 172.952 179.4C172.952 179 173.152 178.8 173.552 178.8H178.202C178.602 178.8 178.802 179 178.802 179.4C178.869 180.467 179.035 181.317 179.302 181.95C179.602 183.017 180.152 183.867 180.952 184.5C181.785 185.1 182.785 185.4 183.952 185.4C186.152 185.4 187.669 184.4 188.502 182.4C188.935 181.433 189.152 180.183 189.152 178.65C189.152 176.95 188.902 175.55 188.402 174.45C187.535 172.583 186.035 171.65 183.902 171.65C183.335 171.65 182.569 171.983 181.602 172.65C181.469 172.717 181.352 172.75 181.252 172.75C181.085 172.75 180.919 172.65 180.752 172.45L178.452 169.25C178.352 169.083 178.302 168.95 178.302 168.85C178.302 168.683 178.369 168.533 178.502 168.4L186.752 160.3C186.819 160.233 186.835 160.167 186.802 160.1C186.769 160.033 186.702 160 186.602 160H174.102C173.935 160 173.785 159.95 173.652 159.85C173.552 159.717 173.502 159.567 173.502 159.4V155.6C173.502 155.433 173.552 155.3 173.652 155.2C173.785 155.067 173.935 155 174.102 155H194.052C194.219 155 194.352 155.067 194.452 155.2C194.585 155.3 194.652 155.433 194.652 155.6V159.95C194.652 160.25 194.552 160.5 194.352 160.7L187.202 167.9C187.069 168.033 187.135 168.133 187.402 168.2C190.502 168.633 192.702 170.35 194.002 173.35ZM208.914 169.8C207.514 169.8 206.214 169.467 205.014 168.8C203.848 168.1 202.914 167.167 202.214 166C201.548 164.833 201.214 163.55 201.214 162.15C201.214 160.783 201.548 159.517 202.214 158.35C202.914 157.183 203.848 156.267 205.014 155.6C206.214 154.9 207.514 154.55 208.914 154.55C210.281 154.55 211.548 154.9 212.714 155.6C213.914 156.267 214.848 157.183 215.514 158.35C216.214 159.517 216.564 160.783 216.564 162.15C216.564 163.55 216.214 164.833 215.514 166C214.848 167.167 213.931 168.1 212.764 168.8C211.598 169.467 210.314 169.8 208.914 169.8ZM207.264 190C207.031 190 206.881 189.933 206.814 189.8C206.748 189.667 206.764 189.5 206.864 189.3L225.714 155.4C225.881 155.133 226.131 155 226.464 155H229.364C229.598 155 229.748 155.067 229.814 155.2C229.881 155.333 229.864 155.5 229.764 155.7L210.964 189.6C210.798 189.867 210.548 190 210.214 190H207.264ZM208.914 166.3C210.048 166.3 210.998 165.9 211.764 165.1C212.564 164.3 212.964 163.317 212.964 162.15C212.964 161.017 212.564 160.05 211.764 159.25C210.998 158.45 210.048 158.05 208.914 158.05C207.748 158.05 206.764 158.45 205.964 159.25C205.164 160.05 204.764 161.017 204.764 162.15C204.764 163.317 205.164 164.3 205.964 165.1C206.764 165.9 207.748 166.3 208.914 166.3ZM228.164 190.45C226.764 190.45 225.464 190.117 224.264 189.45C223.098 188.75 222.164 187.817 221.464 186.65C220.798 185.483 220.464 184.2 220.464 182.8C220.464 181.433 220.798 180.167 221.464 179C222.164 177.833 223.098 176.917 224.264 176.25C225.464 175.55 226.764 175.2 228.164 175.2C229.531 175.2 230.798 175.55 231.964 176.25C233.164 176.917 234.098 177.833 234.764 179C235.464 180.167 235.814 181.433 235.814 182.8C235.814 184.2 235.464 185.483 234.764 186.65C234.098 187.817 233.181 188.75 232.014 189.45C230.848 190.117 229.564 190.45 228.164 190.45ZM228.164 186.95C229.298 186.95 230.264 186.55 231.064 185.75C231.864 184.95 232.264 183.967 232.264 182.8C232.264 181.667 231.864 180.7 231.064 179.9C230.264 179.1 229.298 178.7 228.164 178.7C226.998 178.7 226.014 179.1 225.214 179.9C224.414 180.7 224.014 181.667 224.014 182.8C224.014 183.967 224.414 184.95 225.214 185.75C226.014 186.55 226.998 186.95 228.164 186.95Z" fill="#393939"/>
<defs>
<filter id="filter0_d_1100_224" x="0" y="0" width="379" height="405" filterUnits="userSpaceOnUse" color-interpolation-filters="sRGB">
<feFlood flood-opacity="0" result="BackgroundImageFix"/>
<feColorMatrix in="SourceAlpha" type="matrix" values="0 0 0 0 0 0 0 0 0 0 0 0 0 0 0 0 0 0 127 0" result="hardAlpha"/>
<feMorphology radius="4" operator="dilate" in="SourceAlpha" result="effect1_dropShadow_1100_224"/>
<feOffset dy="4"/>
<feGaussianBlur stdDeviation="2"/>
<feComposite in2="hardAlpha" operator="out"/>
<feColorMatrix type="matrix" values="0 0 0 0 0 0 0 0 0 0 0 0 0 0 0 0 0 0 0.25 0"/>
<feBlend mode="normal" in2="BackgroundImageFix" result="effect1_dropShadow_1100_224"/>
<feBlend mode="normal" in="SourceGraphic" in2="effect1_dropShadow_1100_224" result="shape"/>
</filter>
</defs>
</svg>
