<svg width="26" height="25" viewBox="0 0 26 25" fill="none" xmlns="http://www.w3.org/2000/svg">
<path d="M1 19.6194C1 17.8773 1 17.0063 1.4164 16.366C1.6492 16.0074 1.9684 15.7065 2.3488 15.487C3.0268 15.0945 3.952 15.0945 5.8 15.0945C7.648 15.0945 8.572 15.0945 9.2512 15.487C9.6316 15.7065 9.9508 16.0074 10.1836 16.366C10.6 17.0051 10.6 17.8773 10.6 19.6194C10.6 21.3616 10.6 22.2326 10.1836 22.874C9.9508 23.2315 9.6316 23.5324 9.2512 23.7519C8.5732 24.1444 7.648 24.1444 5.8 24.1444C3.952 24.1444 3.028 24.1444 2.3488 23.7519C1.96882 23.5328 1.6493 23.232 1.4164 22.874C1 22.2326 1 21.3616 1 19.6194ZM15.4 19.6194C15.4 17.8773 15.4 17.0063 15.8164 16.366C16.0492 16.0074 16.3684 15.7065 16.7488 15.487C17.4268 15.0945 18.352 15.0945 20.2 15.0945C22.048 15.0945 22.972 15.0945 23.6524 15.487C24.0316 15.7065 24.3508 16.0074 24.5836 16.366C25 17.0051 25 17.8773 25 19.6194C25 21.3616 25 22.2326 24.5836 22.874C24.3507 23.2316 24.0317 23.5323 23.6524 23.7519C22.972 24.1444 22.048 24.1444 20.2 24.1444C18.352 24.1444 17.428 24.1444 16.7488 23.7519C16.3688 23.5328 16.0493 23.232 15.8164 22.874C15.4 22.2326 15.4 21.3616 15.4 19.6194ZM1 6.04451C1 4.30239 1 3.43133 1.4164 2.79105C1.6492 2.43245 1.9684 2.13153 2.3488 1.91207C3.0268 1.51953 3.952 1.51953 5.8 1.51953C7.648 1.51953 8.572 1.51953 9.2512 1.91207C9.6316 2.13153 9.9508 2.43245 10.1836 2.79105C10.6 3.4302 10.6 4.30239 10.6 6.04451C10.6 7.78663 10.6 8.65768 10.1836 9.29797C9.9508 9.65657 9.6316 9.95748 9.2512 10.1769C8.5732 10.5695 7.648 10.5695 5.8 10.5695C3.952 10.5695 3.028 10.5695 2.3488 10.1769C1.96868 9.95753 1.64915 9.65631 1.4164 9.29797C1 8.65882 1 7.78663 1 6.04451ZM15.4 6.04451C15.4 4.30239 15.4 3.43133 15.8164 2.79105C16.0492 2.43245 16.3684 2.13153 16.7488 1.91207C17.4268 1.51953 18.352 1.51953 20.2 1.51953C22.048 1.51953 22.972 1.51953 23.6524 1.91207C24.0316 2.13153 24.3508 2.43245 24.5836 2.79105C25 3.4302 25 4.30239 25 6.04451C25 7.78663 25 8.65768 24.5836 9.29797C24.3508 9.65657 24.0316 9.95748 23.6524 10.1769C22.972 10.5695 22.048 10.5695 20.2 10.5695C18.352 10.5695 17.428 10.5695 16.7488 10.1769C16.3687 9.95753 16.0491 9.65631 15.8164 9.29797C15.4 8.65882 15.4 7.78663 15.4 6.04451Z" stroke="#505050" stroke-width="1.5" stroke-linecap="round" stroke-linejoin="round"/>
</svg>
