<svg width="24" height="23" viewBox="0 0 24 23" fill="none" xmlns="http://www.w3.org/2000/svg">
<path d="M3 22.7968C2.175 22.7968 1.469 22.586 0.882 22.1643C0.295 21.7427 0.001 21.2353 0 20.642V9.86826C0 9.2757 0.294 8.76861 0.882 8.347C1.47 7.92539 2.176 7.71422 3 7.7135H4.5V5.55875C4.5 4.06838 5.2315 2.79816 6.6945 1.74808C8.1575 0.697994 9.926 0.172594 12 0.171876C14.074 0.171157 15.843 0.696558 17.307 1.74808C18.771 2.79959 19.502 4.06982 19.5 5.55875V7.7135H21C21.825 7.7135 22.5315 7.92467 23.1195 8.347C23.7075 8.76933 24.001 9.27642 24 9.86826V20.642C24 21.2346 23.7065 21.742 23.1195 22.1643C22.5325 22.5867 21.826 22.7975 21 22.7968H3ZM3 20.642H21V9.86826H3V20.642ZM12 17.4099C12.825 17.4099 13.5315 17.1991 14.1195 16.7775C14.7075 16.3559 15.001 15.8484 15 15.2551C14.999 14.6619 14.7055 14.1548 14.1195 13.7339C13.5335 13.313 12.827 13.1018 12 13.1004C11.173 13.0989 10.467 13.3101 9.882 13.7339C9.297 14.1576 9.003 14.6647 9 15.2551C8.997 15.8455 9.291 16.353 9.882 16.7775C10.473 17.202 11.179 17.4128 12 17.4099ZM7.5 7.7135H16.5V5.55875C16.5 4.66094 16.0625 3.8978 15.1875 3.26933C14.3125 2.64086 13.25 2.32663 12 2.32663C10.75 2.32663 9.6875 2.64086 8.8125 3.26933C7.9375 3.8978 7.5 4.66094 7.5 5.55875V7.7135Z" fill="#505050"/>
</svg>
