<svg width="40" height="40" viewBox="0 0 40 40" fill="none" xmlns="http://www.w3.org/2000/svg">
<path d="M18.3333 6.66835H6.66665C5.78259 6.66835 4.93474 7.01954 4.30962 7.64466C3.6845 8.26978 3.33331 9.11762 3.33331 10.0017V33.335C3.33331 34.2191 3.6845 35.0669 4.30962 35.692C4.93474 36.3172 5.78259 36.6683 6.66665 36.6683H30C30.884 36.6683 31.7319 36.3172 32.357 35.692C32.9821 35.0669 33.3333 34.2191 33.3333 33.335V21.6683M30.8333 4.16835C31.4964 3.50531 32.3956 3.13281 33.3333 3.13281C34.271 3.13281 35.1703 3.50531 35.8333 4.16835C36.4964 4.83139 36.8688 5.73066 36.8688 6.66835C36.8688 7.60603 36.4964 8.5053 35.8333 9.16835L20 25.0017L13.3333 26.6683L15 20.0017L30.8333 4.16835Z" stroke="#1E1E1E" stroke-width="4" stroke-linecap="round" stroke-linejoin="round"/>
</svg>
