<svg width="24" height="24" viewBox="0 0 24 24" fill="none" xmlns="http://www.w3.org/2000/svg">
<path fill-rule="evenodd" clip-rule="evenodd" d="M20.3077 20.582C20.8745 20.0826 21.2308 19.3579 21.2308 18.5516V10.3371C21.2309 9.91987 21.1336 9.50815 20.9463 9.13375C20.7591 8.75935 20.4869 8.43227 20.1508 8.17773L13.6892 3.28867C13.205 2.92197 12.6111 2.72313 12 2.72313C11.3889 2.72313 10.795 2.92197 10.3108 3.28867L3.84923 8.17773C3.51288 8.43245 3.24055 8.75983 3.05329 9.13457C2.86602 9.5093 2.76884 9.92138 2.76923 10.3389V18.5516C2.76826 18.9085 2.8388 19.2621 2.97681 19.5923C3.11483 19.9224 3.31761 20.2225 3.57359 20.4755C3.82956 20.7285 4.13369 20.9294 4.46862 21.0667C4.80354 21.204 5.16269 21.2751 5.52554 21.2758H6.46154V14.9193C6.46154 13.9559 6.85055 13.032 7.54299 12.3509C8.23543 11.6697 9.17459 11.287 10.1538 11.287H13.8462C14.8254 11.287 15.7646 11.6697 16.457 12.3509C17.1495 13.032 17.5385 13.9559 17.5385 14.9193V21.2758H18.4745C19.1778 21.2721 19.8222 21.0106 20.3077 20.582ZM24 18.5516C24 19.9966 23.4165 21.3824 22.3778 22.4042C21.3392 23.426 19.9304 24 18.4615 24H5.53846C4.06957 24 2.66084 23.426 1.62218 22.4042C0.583515 21.3824 0 19.9966 0 18.5516V10.3371C5.77339e-05 9.50291 0.194842 8.67984 0.569338 7.93137C0.943833 7.1829 1.48804 6.52903 2.16 6.02015L8.62154 1.13109C9.58999 0.397684 10.7778 0 12 0C13.2222 0 14.41 0.397684 15.3785 1.13109L21.84 6.02015C22.5122 6.52922 23.0566 7.18338 23.4311 7.93219C23.8056 8.68099 24.0002 9.50442 24 10.3389V18.5516ZM14.7692 14.9193C14.7692 14.6784 14.672 14.4475 14.4989 14.2772C14.3258 14.1069 14.091 14.0112 13.8462 14.0112H10.1538C9.90903 14.0112 9.67424 14.1069 9.50113 14.2772C9.32802 14.4475 9.23077 14.6784 9.23077 14.9193V21.2758H14.7692V14.9193Z" fill="#505050"/>
</svg>
