<svg width="24" height="23" viewBox="0 0 24 23" fill="none" xmlns="http://www.w3.org/2000/svg">
<path fill-rule="evenodd" clip-rule="evenodd" d="M18.8571 8.52749C19.5391 8.52749 20.1932 8.22939 20.6754 7.69876C21.1577 7.16813 21.4286 6.44844 21.4286 5.69802C21.4286 4.94759 21.1577 4.2279 20.6754 3.69727C20.1932 3.16664 19.5391 2.86854 18.8571 2.86854C18.1752 2.86854 17.5211 3.16664 17.0389 3.69727C16.5566 4.2279 16.2857 4.94759 16.2857 5.69802C16.2857 6.44844 16.5566 7.16813 17.0389 7.69876C17.5211 8.22939 18.1752 8.52749 18.8571 8.52749ZM18.8571 11.357C19.819 11.3569 20.7616 11.06 21.5778 10.5C22.394 9.93997 23.0511 9.13933 23.4745 8.189C23.8979 7.23866 24.0706 6.17671 23.973 5.12378C23.8754 4.07085 23.5114 3.06914 22.9223 2.23243C22.3333 1.39573 21.5428 0.757565 20.6406 0.39043C19.7385 0.0232947 18.7609 -0.0580954 17.8188 0.155504C16.8767 0.369104 16.008 0.869132 15.3112 1.59879C14.6144 2.32845 14.1176 3.25849 13.8771 4.28328H1.28571C0.944722 4.28328 0.617696 4.43233 0.376577 4.69764C0.135459 4.96296 2.96416e-07 5.3228 2.96416e-07 5.69802C2.96416e-07 6.07323 0.135459 6.43307 0.376577 6.69839C0.617696 6.9637 0.944722 7.11275 1.28571 7.11275H13.8771C14.1622 8.32756 14.8061 9.40369 15.7075 10.172C16.609 10.9402 17.7169 11.3571 18.8571 11.357ZM7.71429 17.0159C7.71429 17.7663 7.44337 18.486 6.96113 19.0167C6.4789 19.5473 5.82484 19.8454 5.14286 19.8454C4.46087 19.8454 3.80682 19.5473 3.32458 19.0167C2.84235 18.486 2.57143 17.7663 2.57143 17.0159C2.57143 16.2655 2.84235 15.5458 3.32458 15.0152C3.80682 14.4845 4.46087 14.1864 5.14286 14.1864C5.82484 14.1864 6.4789 14.4845 6.96113 15.0152C7.44337 15.5458 7.71429 16.2655 7.71429 17.0159ZM10.1229 18.4307C9.80759 19.7618 9.06261 20.9211 8.02713 21.6919C6.99165 22.4626 5.73654 22.7921 4.49635 22.6188C3.25616 22.4455 2.11576 21.7812 1.28827 20.7501C0.460783 19.7189 0.0028314 18.3915 2.96416e-07 17.0159C-0.000424575 15.6382 0.455909 14.3077 1.28343 13.2738C2.11094 12.2399 3.2528 11.5737 4.49486 11.4001C5.73693 11.2266 6.99388 11.5575 8.03001 12.3309C9.06614 13.1044 9.81027 14.2671 10.1229 15.6012H22.7143C23.0553 15.6012 23.3823 15.7502 23.6234 16.0155C23.8645 16.2809 24 16.6407 24 17.0159C24 17.3911 23.8645 17.751 23.6234 18.0163C23.3823 18.2816 23.0553 18.4307 22.7143 18.4307H10.1229Z" fill="#505050"/>
</svg>
