<svg width="24" height="24" viewBox="0 0 24 24" fill="none" xmlns="http://www.w3.org/2000/svg">
<path d="M18.3202 1.51093C18.3203 1.11032 18.1569 0.726074 17.8658 0.442719C17.5747 0.159364 17.1799 0.000113484 16.7682 6.05467e-08C16.5643 -5.61009e-05 16.3624 0.0389586 16.174 0.114817C15.9857 0.190675 15.8145 0.301891 15.6703 0.442114C15.3791 0.725309 15.2154 1.10947 15.2153 1.51008C15.2153 2.34402 16.7677 5.15975 16.7677 5.15975C16.7677 5.15975 18.3202 2.34487 18.3202 1.51093ZM16.0258 1.51093C16.0223 1.4141 16.0389 1.31758 16.0746 1.22711C16.1102 1.13665 16.1642 1.0541 16.2334 0.984374C16.3025 0.914653 16.3854 0.859189 16.4771 0.821289C16.5687 0.783388 16.6673 0.763826 16.7668 0.763769C16.8664 0.763711 16.965 0.783159 17.0567 0.820954C17.1484 0.858749 17.2313 0.914117 17.3006 0.983759C17.3698 1.0534 17.4239 1.13589 17.4597 1.22631C17.4955 1.31674 17.5122 1.41324 17.5088 1.51008C17.5023 1.69713 17.4214 1.87441 17.2831 2.00453C17.1449 2.13465 16.9601 2.20745 16.7677 2.20756C16.5754 2.20767 16.3905 2.13509 16.2521 2.00513C16.1137 1.87516 16.0325 1.69797 16.0258 1.51093ZM20.1601 14.1355C19.6679 14.1355 19.1958 14.1757 18.7624 14.2407L7.69378 10.2703C7.8696 10.1164 7.96806 9.94529 7.96806 9.76568C7.96591 9.67097 7.93931 9.57832 7.8907 9.49625L15.2838 7.58203C15.6882 7.69921 16.1831 7.7702 16.7308 7.7702C18.067 7.7702 19.1483 7.35623 19.1483 6.84474C19.1483 6.33155 18.067 5.91842 16.7308 5.91842C15.3946 5.91842 14.3133 6.33326 14.3133 6.84474C14.3145 6.90461 14.3303 6.96221 14.3608 7.01752L6.63536 8.75126C5.98781 8.57261 5.31726 8.48533 4.64423 8.4921C2.80957 8.4921 1.32127 9.0626 1.32127 9.76653C1.32127 10.4705 2.80957 11.041 4.64423 11.041C5.14882 11.041 5.62001 10.9939 6.04901 10.9169L16.5893 15.079C16.4223 15.2432 16.3203 15.4211 16.3203 15.6118C16.3203 15.7743 16.4047 15.9232 16.5277 16.0677L5.57958 20.0544C5.44127 20.0493 5.30149 20.0464 5.16025 20.0458C2.312 20.0458 0 20.9319 0 22.0216C0 23.1139 2.312 24 5.16025 24C8.0085 24 10.3205 23.1156 10.3205 22.0225C10.3205 21.8343 10.2475 21.653 10.1183 21.4811L19.143 17.0214C19.4683 17.0556 19.805 17.077 20.1584 17.077C22.2796 17.077 24 16.4184 24 15.6033C24 14.7958 22.2796 14.1355 20.1584 14.1355H20.1601Z" fill="#505050"/>
</svg>
