<svg width="160" height="160" viewBox="0 0 160 160" fill="none" xmlns="http://www.w3.org/2000/svg">
<path fill-rule="evenodd" clip-rule="evenodd" d="M80 0C35.816 0 0 35.816 0 80C0 124.184 35.816 160 80 160C124.184 160 160 124.184 160 80C160 35.816 124.184 0 80 0ZM52 60C52 56.323 52.7242 52.682 54.1314 49.2849C55.5385 45.8877 57.601 42.801 60.201 40.201C62.8011 37.601 65.8877 35.5385 69.2849 34.1314C72.682 32.7242 76.323 32 80 32C83.677 32 87.318 32.7242 90.7151 34.1314C94.1123 35.5385 97.1989 37.601 99.799 40.201C102.399 42.801 104.461 45.8877 105.869 49.2849C107.276 52.682 108 56.323 108 60C108 67.4261 105.05 74.548 99.799 79.799C94.548 85.05 87.4261 88 80 88C72.5739 88 65.452 85.05 60.201 79.799C54.95 74.548 52 67.4261 52 60ZM130.064 119.872C124.074 127.403 116.46 133.484 107.791 137.662C99.1228 141.839 89.6228 144.006 80 144C70.3772 144.006 60.8772 141.839 52.2086 137.662C43.54 133.484 35.9265 127.403 29.936 119.872C42.904 110.568 60.6 104 80 104C99.4 104 117.096 110.568 130.064 119.872Z" fill="#D9D9D9"/>
</svg>
